# xmcd
#
# Track frame offsets: 
#        150
#        11907
#        24515
#        40430
#        60471
#        72823
#        85569
#        93476
#        111750
#        123686
#        136174
#        146978
#        157674
#        171406
#        183847
#        194430
#        210922
#        226917
#        239912
#        276068
#
# Disc length: 3978 seconds
#
# Revision: 1
# Processed by: cddbd v1.5.2PL0 Copyright (c) Steve Scherf et al.
# Submitted via: ExactAudioCopy v1.1
#
DISCID=180f8814
DTITLE=John Lee Hooker - Collection CD2
DYEAR=2010
DGENRE=Blues
TTITLE0=I Love You Honey
TTITLE1=Rosie Mae
TTITLE2=Dirty Ground Hog
TTITLE3=Nightmare
TTITLE4=I´m In The Mood
TTITLE5=I Can´t quit You Now Blues
TTITLE6=Stop Baby, Don´t Hold Me That Way
TTITLE7=House Rent Boogie
TTITLE8=Flowers On The Hour
TTITLE9=Drug Store Woman
TTITLE10=Let´s Make It
TTITLE11=Maudie
TTITLE12=Time Is Marching
TTITLE13=Trouble Blues
TTITLE14=Dusty Road
TTITLE15=Five Long Years
TTITLE16=It Serves Me Right To Suffer
TTITLE17=I Can See You When You're Weak
TTITLE18=When My First Wife Left Me
TTITLE19=Louise
EXTD=YEAR: 2010
EXTT0=
EXTT1=
EXTT2=
EXTT3=
EXTT4=
EXTT5=
EXTT6=
EXTT7=
EXTT8=
EXTT9=
EXTT10=
EXTT11=
EXTT12=
EXTT13=
EXTT14=
EXTT15=
EXTT16=
EXTT17=
EXTT18=
EXTT19=
PLAYORDER=
